<svg width="146" height="146" viewBox="0 0 146 146" fill="none" xmlns="http://www.w3.org/2000/svg">
<path d="M101.168 52.9715C101.168 70.7442 145.188 140.343 73.0928 140.343C0.997304 140.343 45.0178 70.7442 45.0178 52.9715C45.0178 35.1989 46.1953 20.796 73.0928 20.796C99.9903 20.796 101.168 35.209 101.168 52.9715Z" fill="white"/>
<path d="M73.0928 140.86C55.0563 140.86 42.7037 136.415 36.3904 127.665C25.7431 112.846 33.8225 88.7299 39.7501 71.0994C42.3079 63.4564 44.5206 56.8894 44.5206 52.9715C44.5206 33.8286 46.5506 20.2783 73.1131 20.2783C99.6757 20.2783 101.665 33.8286 101.665 52.9715C101.665 56.8589 103.868 63.4564 106.436 71.0994C112.333 88.7198 120.412 112.846 109.765 127.645C103.482 136.435 91.1395 140.86 73.0928 140.86ZM73.0928 21.3238C47.4641 21.3238 45.5457 33.859 45.5457 52.9715C45.5457 57.0315 43.3127 63.7 40.7245 71.4343C34.8882 88.8416 26.9103 112.674 37.243 127.036C43.333 135.511 55.4115 139.815 73.0928 139.815C90.7741 139.815 102.843 135.511 108.943 127.036C119.285 112.674 111.297 88.8416 105.471 71.4343C102.883 63.7 100.64 57.0315 100.64 52.9715C100.65 33.859 98.7216 21.3238 73.0928 21.3238V21.3238Z" fill="#231F20"/>
<path d="M129.486 118.003C123.576 125.441 116.251 131.635 107.934 136.227C99.6175 140.819 90.4735 143.719 81.0302 144.758C75.758 145.34 70.4378 145.34 65.1657 144.758C55.7232 143.719 46.5799 140.821 38.2632 136.231C29.9465 131.64 22.6211 125.449 16.7096 118.013C26.7398 110.931 37.8198 105.468 49.5448 101.823C64.8832 97.0439 81.3127 97.0439 96.651 101.823C108.373 105.472 119.452 110.931 129.486 118.003Z" fill="#353B74"/>
<path d="M60.05 98.88C60.05 98.88 45.0077 102.179 45.2513 103.204C45.4949 104.229 61.9075 136.435 62.8616 136.435C63.8157 136.435 73.0928 130.802 73.0928 130.802L60.05 98.88Z" fill="white"/>
<path d="M62.8617 136.953C62.4151 136.953 61.9076 136.953 53.3207 120.449C49.8392 113.77 44.886 104.036 44.7236 103.336C44.6971 103.187 44.7159 103.034 44.7774 102.897C44.8389 102.759 44.9405 102.643 45.0687 102.564C46.1852 101.681 59.5528 98.0679 60.2937 98.4232C60.4069 98.4802 60.494 98.5782 60.5373 98.6972L73.6105 130.599C73.6594 130.713 73.6647 130.841 73.6254 130.959C73.5862 131.077 73.505 131.176 73.3974 131.238C70.5351 132.964 63.8564 136.953 62.8617 136.953ZM45.8401 103.305C47.119 106.35 61.0651 133.542 63.0241 135.867C64.0391 135.511 68.4239 133.014 72.4636 130.578L59.7253 99.4788C57.4416 99.8949 47.3322 102.331 45.8401 103.305Z" fill="#231F20"/>
<path d="M85.7702 98.88C85.7702 98.88 100.802 102.179 100.559 103.204C100.315 104.229 83.8823 136.435 82.9282 136.435C81.9741 136.435 72.697 130.802 72.697 130.802L85.7702 98.88Z" fill="white"/>
<path d="M82.9281 136.953C81.9131 136.953 75.2547 132.964 72.4229 131.238C72.3183 131.173 72.2398 131.074 72.2009 130.957C72.162 130.84 72.1651 130.713 72.2097 130.599L85.2829 98.6973C85.3295 98.5802 85.4157 98.4833 85.5265 98.4233C86.2472 98.0579 99.6046 101.681 100.752 102.564C100.879 102.644 100.979 102.76 101.039 102.898C101.099 103.036 101.115 103.188 101.086 103.336C100.924 104.036 96.0114 113.77 92.4995 120.449C83.8822 136.953 83.395 136.953 82.9281 136.953ZM73.3566 130.578C76.4051 132.502 79.5526 134.264 82.786 135.856C84.7246 133.512 98.6606 106.421 99.9699 103.305C98.4474 102.29 88.3482 99.9356 86.0949 99.4788L73.3566 130.578Z" fill="#231F20"/>
<path d="M88.125 106.848L73.0929 130.792L57.269 106.848C64.6785 104.645 80.7257 104.645 88.125 106.848Z" fill="#231F20"/>
<path d="M90.8147 64.035C92.1849 55.4684 106.415 53.3572 105.705 63.4565C105.602 66.9644 104.261 70.3227 101.919 72.9366C99.4828 75.4132 95.5548 76.5906 92.3778 75.1696" fill="white"/>
<path d="M95.3417 76.3064C94.2479 76.3142 93.165 76.0894 92.1647 75.6467C92.0382 75.5902 91.9393 75.4857 91.8898 75.3562C91.8403 75.2268 91.8443 75.083 91.9008 74.9565C91.9574 74.83 92.0618 74.7311 92.1912 74.6816C92.3207 74.6321 92.4645 74.6361 92.591 74.6926C95.4026 75.9512 99.0769 75.0783 101.543 72.5712C104.213 69.851 105.004 66.0854 105.187 63.4362C105.431 59.9446 103.726 57.6507 100.63 57.3462C96.8236 56.9098 92.0632 59.6097 91.3324 64.1873C91.3367 64.2664 91.3231 64.3455 91.2927 64.4186C91.2623 64.4917 91.2158 64.5571 91.1567 64.6098C91.0976 64.6625 91.0274 64.7013 90.9512 64.7232C90.8751 64.7451 90.795 64.7495 90.7169 64.7362C90.6389 64.723 90.5647 64.6923 90.5001 64.6465C90.4355 64.6007 90.382 64.5409 90.3437 64.4716C90.3053 64.4023 90.283 64.3253 90.2785 64.2462C90.2739 64.1671 90.2872 64.088 90.3174 64.0148C91.1497 58.8586 96.4886 55.8136 100.772 56.3109C103.644 56.6357 106.588 58.7165 106.253 63.558C106.05 66.4102 105.238 70.4296 102.315 73.3731C100.469 75.2329 97.9621 76.2874 95.3417 76.3064V76.3064Z" fill="#231F20"/>
<path d="M55.3709 64.035C53.9601 55.4684 39.75 53.3572 40.4808 63.4565C40.5918 66.9646 41.9359 70.3214 44.2769 72.9366C46.7129 75.4132 50.641 76.5906 53.8179 75.1696" fill="white"/>
<path d="M50.844 76.3064C48.2176 76.2521 45.7204 75.1568 43.9014 73.2614C40.9985 70.3179 40.1561 66.2985 39.9633 63.4463C39.6182 58.6048 42.5718 56.524 45.4442 56.1992C49.7174 55.7019 55.0664 58.7469 55.8886 63.9031C55.9017 63.9712 55.901 64.0412 55.8865 64.109C55.8721 64.1768 55.8441 64.241 55.8044 64.2978C55.7646 64.3546 55.7138 64.4029 55.6551 64.4397C55.5963 64.4765 55.5308 64.5011 55.4623 64.5121C55.3244 64.5302 55.1847 64.4952 55.0716 64.4142C54.9585 64.3331 54.8805 64.2121 54.8533 64.0756C54.1225 59.498 49.3723 56.7981 45.5559 57.2345C42.4601 57.5898 40.7651 59.8837 41.0087 63.3245C41.1914 65.994 41.973 69.7596 44.6424 72.4595C47.1089 74.9666 50.7933 75.8395 53.5947 74.5809C53.6584 74.5428 53.7294 74.5185 53.803 74.5097C53.8767 74.5009 53.9515 74.5077 54.0223 74.5297C54.0932 74.5518 54.1587 74.5885 54.2144 74.6375C54.2701 74.6865 54.3148 74.7467 54.3457 74.8142C54.3766 74.8817 54.3929 74.9549 54.3935 75.0292C54.3942 75.1034 54.3792 75.1769 54.3495 75.2449C54.3198 75.3129 54.2761 75.3739 54.2212 75.4239C54.1664 75.4739 54.1016 75.5117 54.0312 75.535C53.0358 76.0161 51.9492 76.2791 50.844 76.3064V76.3064Z" fill="#231F20"/>
<path d="M57.269 106.848C57.269 106.848 61.1159 115.232 72.3519 115.232C81.3042 115.232 88.125 106.848 88.125 106.848L86.6228 73.9211H58.7712L57.269 106.848Z" fill="white"/>
<path d="M72.3519 115.759C60.9129 115.759 56.8326 107.152 56.792 107.071C56.7607 106.993 56.7435 106.911 56.7412 106.827L58.2434 73.9008C58.2512 73.7661 58.3102 73.6396 58.4084 73.5471C58.5065 73.4546 58.6363 73.4032 58.7712 73.4034H86.6228C86.7584 73.4007 86.8897 73.4512 86.9884 73.5442C87.0871 73.6372 87.1453 73.7653 87.1506 73.9008L88.6528 106.827C88.6528 106.956 88.61 107.081 88.531 107.183C88.2468 107.528 81.4463 115.759 72.3519 115.759ZM57.7968 106.736C58.3043 107.751 62.1715 114.704 72.3519 114.704C80.2994 114.704 86.633 107.781 87.5769 106.665L86.1052 74.4489H59.2686L57.7968 106.736Z" fill="#231F20"/>
<path d="M58.7712 88.0195C60.9199 91.137 63.8119 93.6697 67.1856 95.3884C72.7072 98.4334 80.9591 101.884 87.6581 100.859L86.5517 86.9335C81.6463 87.5438 76.686 87.5745 71.7733 87.0248C67.4494 86.6493 62.9936 86.2331 59.0351 84.5584C58.3551 84.264 57.9186 86.7 58.7712 88.0195Z" fill="#231F20"/>
<path d="M85.1002 101.549C78.3606 101.549 71.0121 98.0782 66.9419 95.835C63.4821 94.0837 60.5213 91.486 58.3347 88.2834C57.9833 87.6885 57.7937 87.012 57.7848 86.3211C57.7758 85.6302 57.948 84.949 58.284 84.3452C58.3932 84.2043 58.5464 84.1038 58.7192 84.0597C58.892 84.0156 59.0746 84.0303 59.2381 84.1016C63.1966 85.7662 67.7843 86.1316 71.824 86.5275C76.6961 87.0748 81.6158 87.0441 86.4806 86.4361C86.5485 86.4267 86.6175 86.4308 86.6837 86.4482C86.7499 86.4657 86.812 86.496 86.8664 86.5376C86.9216 86.58 86.9673 86.6336 87.0005 86.6948C87.0337 86.756 87.0537 86.8235 87.0592 86.8929L88.1554 100.819C88.1671 100.946 88.1293 101.073 88.0499 101.173C87.9705 101.273 87.8556 101.339 87.7291 101.357C86.859 101.488 85.9801 101.552 85.1002 101.549V101.549ZM59.035 85.0963C58.8843 85.5284 58.8254 85.9872 58.8621 86.4434C58.8988 86.8996 59.0303 87.343 59.2482 87.7455V87.7455C61.3383 90.8053 64.1706 93.2848 67.4798 94.952C71.8748 97.3778 80.1775 101.265 87.1607 100.423L86.1457 87.5019C81.3737 88.045 76.5554 88.045 71.7834 87.5019C67.6727 87.1771 63.095 86.7711 59.035 85.0963Z" fill="#231F20"/>
<path d="M73.4075 70.7747C72.4679 70.7781 71.5289 70.7239 70.596 70.6123C70.3996 70.591 70.2113 70.5227 70.047 70.4131C69.8826 70.3036 69.7471 70.156 69.652 69.983C68.1701 67.5673 72.0372 57.265 72.8188 55.235C72.8425 55.1708 72.8787 55.112 72.9253 55.0618C72.9719 55.0117 73.0279 54.9713 73.0902 54.943C73.1525 54.9147 73.2198 54.899 73.2882 54.8969C73.3566 54.8947 73.4247 54.9062 73.4887 54.9305C73.6191 54.9805 73.7244 55.0802 73.7814 55.2076C73.8385 55.3351 73.8427 55.48 73.7932 55.6106C72.0576 60.1476 69.6317 67.9124 70.5452 69.445C70.6162 69.5567 70.667 69.5668 70.7178 69.577C72.5702 69.7703 74.4377 69.7703 76.2901 69.577C76.4139 69.5796 76.5326 69.6266 76.6247 69.7093C76.7168 69.792 76.7763 69.905 76.7922 70.0278C76.8082 70.1505 76.7797 70.275 76.7117 70.3785C76.6438 70.482 76.541 70.5577 76.422 70.592C75.4214 70.7096 74.415 70.7706 73.4075 70.7747V70.7747Z" fill="#231F20"/>
<path d="M93.88 47.988V70.5819C93.88 75.7863 91.8132 80.7778 88.1341 84.4588C84.4549 88.1399 79.4645 90.2093 74.2601 90.212H71.9763C69.3971 90.2133 66.8429 89.7066 64.4595 88.7208C62.0762 87.735 59.9103 86.2895 58.0856 84.4666C56.2609 82.6438 54.8131 80.4794 53.8248 78.0971C52.8366 75.7147 52.3273 73.1611 52.3259 70.5819V49.1451L64.6886 48.1301L66.1096 38.3251L69.1851 49.409L77.9547 48.2519C78.8479 44.3238 77.9547 35.8587 77.8227 35.4832L84.1462 47.3485L93.88 47.988Z" fill="white"/>
<path d="M74.26 90.76H71.9763C66.6317 90.7573 61.5065 88.6344 57.7254 84.8571C53.9444 81.0798 51.8163 75.9568 51.8082 70.6122V49.145C51.8078 49.0144 51.8567 48.8886 51.9452 48.7926C52.0337 48.6966 52.1551 48.6376 52.2853 48.6273L64.2318 47.6123L65.5919 38.2236C65.6064 38.1032 65.6635 37.992 65.7529 37.9101C65.8422 37.8282 65.958 37.781 66.0791 37.777C66.1984 37.7678 66.3171 37.8002 66.4152 37.8686C66.5132 37.9371 66.5846 38.0374 66.6171 38.1525L69.5809 48.81L77.5385 47.795C78.2794 43.8467 77.4167 36.021 77.3355 35.615C77.287 35.4804 77.294 35.3321 77.3549 35.2027C77.4158 35.0732 77.5257 34.9733 77.6603 34.9248C77.7949 34.8764 77.9432 34.8834 78.0727 34.9443C78.2021 35.0052 78.302 35.115 78.3505 35.2496L84.5318 46.8612L93.9713 47.4905C94.1033 47.4983 94.2272 47.5563 94.3178 47.6525C94.4084 47.7487 94.4587 47.876 94.4585 48.0082V70.6021C94.4559 73.2519 93.9313 75.8753 92.9148 78.3224C91.8983 80.7695 90.4097 82.9924 88.5341 84.8643C86.6585 86.7361 84.4326 88.2202 81.9834 89.2318C79.5343 90.2434 76.9099 90.7626 74.26 90.76ZM52.8334 49.6322V70.5818C52.8415 75.6491 54.8594 80.5062 58.4444 84.0874C62.0294 87.6686 66.8887 89.6814 71.956 89.6841H74.26C79.3256 89.6787 84.1822 87.6648 87.7651 84.0838C91.3479 80.5029 93.3644 75.6473 93.3725 70.5818V48.4751L84.1258 47.8661C84.0375 47.8598 83.9521 47.8315 83.8776 47.7836C83.8031 47.7357 83.7419 47.6698 83.6995 47.592L78.6245 38.0815C78.8681 41.0453 79.0813 45.694 78.4723 48.3634C78.4489 48.4672 78.3947 48.5615 78.3169 48.6339C78.239 48.7064 78.141 48.7536 78.0358 48.7694L69.2662 49.9265C69.1408 49.9437 69.0133 49.9153 68.9071 49.8463C68.8009 49.7774 68.723 49.6726 68.6877 49.551L66.2618 40.8524L65.1961 48.1909C65.18 48.3088 65.1238 48.4176 65.0369 48.499C64.95 48.5803 64.8378 48.6292 64.719 48.6375L52.8334 49.6322Z" fill="#231F20"/>
<path d="M73.0928 145.651C56.6573 145.66 40.7055 140.089 27.8489 129.851C14.9922 119.612 5.99228 105.312 2.32243 89.291C-1.34741 73.2705 0.530217 56.4786 7.64795 41.6642C14.7657 26.8499 26.7018 14.8908 41.5024 7.74454C56.3031 0.59832 73.0913 -1.31161 89.1189 2.3274C105.147 5.96642 119.464 14.9388 129.727 27.7757C139.991 40.6127 145.593 56.5537 145.615 72.9892C145.638 89.4247 140.08 105.381 129.852 118.246C123.079 126.809 114.452 133.724 104.621 138.471C94.7899 143.217 84.0101 145.672 73.0928 145.651V145.651ZM73.0928 1.52113C54.1024 1.54262 35.8958 9.09608 22.4675 22.5244C9.03922 35.9527 1.48577 54.1592 1.46428 73.1497C1.46428 92.1468 9.01084 110.366 22.4438 123.799C35.8768 137.232 54.0958 144.778 73.0928 144.778C92.0899 144.778 110.309 137.232 123.742 123.799C137.175 110.366 144.721 92.1468 144.721 73.1497C144.724 54.1443 137.181 35.9154 123.75 22.4689C110.319 9.02251 92.0982 1.45876 73.0928 1.43993V1.52113Z" fill="#231F20"/>
<path d="M107.288 136.953H107.227C107.158 136.945 107.091 136.924 107.03 136.89C106.97 136.856 106.916 136.81 106.874 136.755C106.831 136.7 106.8 136.637 106.782 136.57C106.765 136.503 106.761 136.433 106.77 136.364L109.267 117.617C109.288 117.48 109.36 117.355 109.47 117.27C109.58 117.185 109.718 117.146 109.856 117.16C109.993 117.18 110.116 117.253 110.2 117.363C110.283 117.473 110.32 117.612 110.303 117.749L107.816 136.506C107.794 136.631 107.73 136.744 107.633 136.825C107.537 136.907 107.415 136.952 107.288 136.953V136.953Z" fill="#231F20"/>
<path d="M38.9076 136.953C38.7803 136.953 38.657 136.907 38.5615 136.823C38.466 136.739 38.405 136.622 38.39 136.496L35.8931 117.739C35.8758 117.6 35.9142 117.46 35.9998 117.35C36.0854 117.24 36.2113 117.168 36.3498 117.15C36.4879 117.135 36.6263 117.175 36.7361 117.26C36.8458 117.345 36.9183 117.469 36.9385 117.607L39.4253 136.354C39.4353 136.422 39.4316 136.491 39.4145 136.558C39.3974 136.624 39.3671 136.687 39.3255 136.742C39.284 136.797 39.2319 136.843 39.1723 136.877C39.1127 136.912 39.0469 136.934 38.9787 136.942L38.9076 136.953Z" fill="#231F20"/>
</svg>
