<svg width="146" height="146" viewBox="0 0 146 146" fill="none" xmlns="http://www.w3.org/2000/svg">
<path d="M129.301 118.003C123.392 125.435 116.072 131.626 107.761 136.218C99.4496 140.809 90.3124 143.712 80.875 144.758C75.6029 145.34 70.2827 145.34 65.0106 144.758C55.5625 143.724 46.413 140.828 38.0907 136.238C29.7684 131.647 22.4383 125.453 16.524 118.013C26.5698 110.926 37.6673 105.463 49.41 101.823C64.7484 97.0439 81.1779 97.0439 96.5162 101.823C108.22 105.477 119.282 110.935 129.301 118.003V118.003Z" fill="#353B74"/>
<path d="M87.98 106.848L80.875 144.758C80.2863 144.829 79.6976 144.88 79.1089 144.92C77.0789 145.103 75.0218 145.194 72.9377 145.194C70.6124 145.197 68.2884 145.082 65.9748 144.849C65.65 144.849 65.3354 144.849 64.9598 144.758L57.0631 106.848C64.4828 104.645 80.5401 104.645 87.98 106.848Z" fill="#231F20"/>
<path d="M72.9073 85.147C88.4126 85.147 100.982 70.7416 100.982 52.9715C100.982 35.2015 88.4126 20.796 72.9073 20.796C57.402 20.796 44.8324 35.2015 44.8324 52.9715C44.8324 70.7416 57.402 85.147 72.9073 85.147Z" fill="white"/>
<path d="M72.9073 85.6849C57.1342 85.6849 44.3351 71.008 44.3351 52.9715C44.3351 33.8286 46.3651 20.2783 72.9276 20.2783C99.4902 20.2783 101.52 33.8286 101.52 52.9715C101.5 71.008 88.6703 85.6849 72.9073 85.6849ZM72.9073 21.3339C47.2786 21.3238 45.3501 33.859 45.3501 52.9715C45.3501 70.4599 57.7128 84.6699 72.9073 84.6699C88.1019 84.6699 100.454 70.4599 100.454 53.0121C100.454 33.859 98.5361 21.3238 72.9073 21.3238V21.3339Z" fill="#231F20"/>
<path d="M90.6292 64.035C91.9994 55.4684 106.22 53.3572 105.519 63.4565C105.413 66.9655 104.068 70.3237 101.723 72.9366C99.2871 75.4132 95.359 76.5906 92.1922 75.1696" fill="white"/>
<path d="M95.1561 76.3064C94.0623 76.3152 92.9791 76.0902 91.9792 75.6467C91.9165 75.6187 91.86 75.5786 91.8129 75.5288C91.7657 75.479 91.7288 75.4203 91.7043 75.3562C91.6798 75.2921 91.6681 75.2239 91.67 75.1553C91.6719 75.0867 91.6873 75.0191 91.7153 74.9565C91.7433 74.8938 91.7833 74.8373 91.8332 74.7901C91.883 74.743 91.9416 74.7061 92.0057 74.6816C92.0698 74.6571 92.1381 74.6454 92.2067 74.6473C92.2753 74.6492 92.3428 74.6646 92.4055 74.6926C95.2069 75.9512 98.8913 75.0783 101.358 72.5712C104.027 69.851 104.809 66.0854 105.002 63.4362C105.245 59.9446 103.54 57.6507 100.444 57.3462C96.638 56.9098 91.8777 59.6097 91.1469 64.1873C91.122 64.323 91.046 64.4439 90.9346 64.5251C90.8232 64.6063 90.6848 64.6417 90.548 64.6238C90.4787 64.614 90.412 64.5903 90.3521 64.554C90.2922 64.5177 90.2402 64.4697 90.1994 64.4127C90.1586 64.3558 90.1298 64.2912 90.1147 64.2228C90.0996 64.1544 90.0985 64.0836 90.1116 64.0148C90.9337 58.8586 96.2828 55.8136 100.566 56.3109C103.428 56.6357 106.382 58.7165 106.037 63.558C105.844 66.4102 105.022 70.4296 102.099 73.3731C100.261 75.2274 97.7664 76.2816 95.1561 76.3064V76.3064Z" fill="#231F20"/>
<path d="M55.1854 64.035C53.8151 55.4684 39.5848 53.3572 40.275 63.4565C40.3823 66.9635 41.7229 70.3204 44.061 72.9366C46.497 75.4132 50.4352 76.5906 53.602 75.1696" fill="white"/>
<path d="M50.6585 76.3064C48.0291 76.2525 45.5285 75.1574 43.7058 73.2614C40.813 70.3179 39.9706 66.2985 39.7676 63.4463C39.4326 58.6048 42.3761 56.524 45.2486 56.1992C49.5217 55.7019 54.8809 58.7469 55.7031 63.9031C55.7147 63.9718 55.7126 64.0421 55.6969 64.1099C55.6812 64.1778 55.6522 64.2419 55.6117 64.2985C55.5711 64.3551 55.5197 64.4031 55.4605 64.4398C55.4013 64.4764 55.3354 64.501 55.2666 64.5121C55.1299 64.53 54.9915 64.4946 54.8801 64.4134C54.7686 64.3322 54.6926 64.2113 54.6678 64.0756C53.937 59.498 49.1868 56.7981 45.3704 57.2345C42.3254 57.5898 40.5694 59.8837 40.813 63.3245C41.0059 65.994 41.828 69.7596 44.4569 72.4595C46.9233 74.9666 50.5469 75.8395 53.4092 74.5809C53.4718 74.5529 53.5394 74.5375 53.608 74.5356C53.6766 74.5337 53.7448 74.5454 53.8089 74.5699C53.873 74.5944 53.9317 74.6313 53.9815 74.6785C54.0313 74.7256 54.0714 74.7821 54.0994 74.8448C54.1274 74.9074 54.1428 74.975 54.1446 75.0436C54.1465 75.1122 54.1349 75.1805 54.1104 75.2445C54.0859 75.3086 54.049 75.3673 54.0018 75.4171C53.9546 75.4669 53.8981 75.507 53.8355 75.535C52.8441 76.017 51.7606 76.2801 50.6585 76.3064V76.3064Z" fill="#231F20"/>
<path d="M57.0835 106.848C57.0835 106.848 60.9304 115.232 72.1563 115.232C75.2943 115.326 78.403 114.603 81.1771 113.133C83.9513 111.663 86.2956 109.497 87.9801 106.848L86.4779 73.9211H58.5451L57.0835 106.848Z" fill="white"/>
<path d="M72.1562 115.76C60.7273 115.76 56.647 107.152 56.6064 107.071C56.5874 106.991 56.5874 106.908 56.6064 106.828L58.1086 73.9009C58.1139 73.7672 58.1707 73.6407 58.2672 73.5479C58.3637 73.4552 58.4924 73.4035 58.6263 73.4036H86.488C86.6229 73.4033 86.7527 73.4547 86.8509 73.5472C86.949 73.6397 87.008 73.7663 87.0158 73.9009L88.5079 106.828C88.5168 106.923 88.4955 107.019 88.447 107.102C86.7041 109.823 84.2895 112.049 81.4361 113.565C78.5826 115.082 75.3866 115.837 72.1562 115.76ZM57.6113 106.736C58.1188 107.751 61.9758 114.704 72.1562 114.704C75.1625 114.769 78.1362 114.071 80.7989 112.673C83.4617 111.276 85.7264 109.227 87.3812 106.716L85.9501 74.449H59.083L57.6113 106.736Z" fill="#231F20"/>
<path d="M58.5451 88.0195C60.7002 91.1352 63.5949 93.6672 66.9696 95.3884C72.4912 98.4334 80.7431 101.884 87.432 100.859L86.3358 86.9335C81.4303 87.5437 76.47 87.5744 71.5574 87.0248C67.2335 86.6493 62.7776 86.2331 58.809 84.5584C58.1594 84.264 57.7229 86.7 58.5451 88.0195Z" fill="#231F20"/>
<path d="M84.9351 101.549C78.1955 101.549 70.8368 98.0781 66.7768 95.835C63.317 94.0836 60.3561 91.4859 58.1696 88.2834C57.8175 87.689 57.6268 87.0131 57.6161 86.3224C57.6054 85.6317 57.7752 84.9501 58.1087 84.3452C58.2222 84.1917 58.3862 84.0832 58.5718 84.0387C58.7574 83.9941 58.9528 84.0164 59.1237 84.1016C63.0822 85.7662 67.6598 86.1316 71.6995 86.5274C76.575 87.0747 81.498 87.0441 86.3663 86.4361C86.4341 86.4266 86.5031 86.4308 86.5693 86.4482C86.6355 86.4656 86.6976 86.496 86.7519 86.5376C86.8058 86.5805 86.8499 86.6344 86.8814 86.6956C86.9129 86.7568 86.931 86.824 86.9347 86.8928L87.9801 100.819C87.9893 100.945 87.9506 101.071 87.8717 101.171C87.7928 101.27 87.6793 101.337 87.5538 101.357C86.687 101.487 85.8116 101.551 84.9351 101.549V101.549ZM58.8191 85.0963C58.6662 85.5275 58.6053 85.9861 58.6403 86.4423C58.6752 86.8986 58.8053 87.3425 59.0222 87.7454C61.1123 90.8052 63.9445 93.2847 67.2538 94.9519C71.6488 97.3778 79.9515 101.265 86.9347 100.423L85.9197 87.5018C81.151 88.045 76.3362 88.045 71.5676 87.5018C67.4771 87.177 62.8792 86.771 58.7989 85.0963H58.8191Z" fill="#231F20"/>
<path d="M71.7401 90.2119H74.034C76.6127 90.2119 79.1662 89.7038 81.5485 88.7167C83.9308 87.7295 86.0952 86.2827 87.9182 84.4588C89.7411 82.6349 91.1869 80.4697 92.1728 78.0869C93.1587 75.704 93.6654 73.1503 93.6641 70.5716V39.4822C93.6641 39.4822 86.8433 41.4411 72.887 41.4411C58.9308 41.4411 52.0999 39.4822 52.0999 39.4822V70.5716C52.0999 75.7805 54.1691 80.7761 57.8523 84.4594C61.5356 88.1426 66.5312 90.2119 71.7401 90.2119Z" fill="white"/>
<path d="M93.6843 39.4822V70.5717C93.6857 73.1504 93.1789 75.7041 92.193 78.0869C91.2071 80.4697 89.7614 82.6349 87.9384 84.4588C86.1154 86.2827 83.951 87.7296 81.5687 88.7167C79.1864 89.7039 76.6329 90.2119 74.0542 90.2119H71.74C66.5311 90.2119 61.5355 88.1427 57.8523 84.4594C54.169 80.7762 52.0998 75.7806 52.0998 70.5717V39.4822C52.0998 39.4822 58.9307 41.4412 72.887 41.4412C86.8432 41.4412 93.664 39.4822 93.664 39.4822H93.6843ZM52.0998 38.4672C51.874 38.4678 51.654 38.5388 51.4705 38.6702C51.3384 38.7667 51.2315 38.8937 51.1591 39.0404C51.0866 39.1871 51.0507 39.3491 51.0543 39.5127V70.6021C51.0678 76.0814 53.2524 81.3319 57.1297 85.2035C61.007 89.0751 66.2608 91.252 71.74 91.2574H74.0339C79.5176 91.2493 84.7745 89.0674 88.652 85.1898C92.5296 81.3122 94.7116 76.0554 94.7196 70.5717V39.4822C94.7178 39.3196 94.6794 39.1595 94.6074 39.0137C94.5353 38.8679 94.4315 38.7401 94.3035 38.6398C94.1162 38.5082 93.893 38.4373 93.664 38.4368C93.5699 38.422 93.474 38.422 93.3798 38.4368C93.3088 38.4368 86.488 40.3551 72.887 40.3551C59.286 40.3551 52.455 38.4977 52.455 38.4774C52.3574 38.4631 52.2583 38.4631 52.1607 38.4774L52.0998 38.4672Z" fill="#231F20"/>
<path d="M73.2219 70.7746C72.2789 70.7778 71.3366 70.7235 70.4002 70.6122C70.2057 70.5894 70.0194 70.5203 69.8569 70.4109C69.6945 70.3014 69.5606 70.1547 69.4664 69.9829C68.015 67.5672 71.8415 57.2751 72.6231 55.2349C72.6729 55.1003 72.7741 54.991 72.9045 54.9311C73.0349 54.8711 73.1837 54.8654 73.3183 54.9152C73.4529 54.965 73.5622 55.0663 73.6222 55.1966C73.6822 55.327 73.6879 55.4759 73.6381 55.6105C71.8923 60.1475 69.4766 67.9123 70.3901 69.4449C70.4044 69.4804 70.4279 69.5113 70.4583 69.5345C70.4886 69.5578 70.5247 69.5724 70.5626 69.5769C72.4116 69.7706 74.2758 69.7706 76.1248 69.5769C76.2634 69.5596 76.4032 69.598 76.5135 69.6836C76.6239 69.7693 76.6958 69.8951 76.7135 70.0336C76.722 70.1017 76.7169 70.1708 76.6984 70.2368C76.68 70.3029 76.6486 70.3646 76.6061 70.4184C76.5636 70.4723 76.5109 70.5171 76.4509 70.5504C76.3909 70.5836 76.3249 70.6047 76.2568 70.6122C75.2491 70.7244 74.2358 70.7786 73.2219 70.7746V70.7746Z" fill="#231F20"/>
<path d="M72.9073 145.651C56.4713 145.662 40.5184 140.094 27.6601 129.856C14.8019 119.619 5.80009 105.319 2.12846 89.2985C-1.54317 73.2779 0.33289 56.4853 7.44951 41.67C14.5661 26.8546 26.5017 14.8942 41.3022 7.74675C56.1027 0.599304 72.8913 -1.31171 88.9195 2.32656C104.948 5.96483 119.266 14.9368 129.53 27.7738C139.794 40.6107 145.397 56.552 145.419 72.9879C145.442 89.4239 139.884 105.381 129.656 118.246C122.883 126.806 114.258 133.719 104.429 138.465C94.5996 143.212 83.8224 145.669 72.9073 145.651ZM72.9073 1.52113C53.9248 1.53991 35.7244 9.08553 22.2969 22.5035C8.86952 35.9214 1.31099 54.1164 1.27876 73.0989C1.27178 87.9574 5.8857 102.45 14.4814 114.57C23.0771 126.69 35.2291 135.836 49.2541 140.743C63.2791 145.65 78.4828 146.073 92.7592 141.955C107.036 137.837 119.678 129.381 128.935 117.759C139.099 105.099 144.606 89.3333 144.536 73.0989C144.522 54.1032 136.973 35.8888 123.543 22.454C110.114 9.01907 91.9031 1.46143 72.9073 1.43992V1.52113Z" fill="#231F20"/>
<path d="M72.5114 123.92L67.2131 119.84L72.5114 115.759L77.7996 119.84L72.5114 123.92Z" fill="white"/>
<path d="M79.0786 144.92C77.0486 145.103 74.9915 145.194 72.9074 145.194C70.582 145.197 68.2581 145.082 65.9445 144.849L70.7251 122.519V122.255H74.1863L74.237 122.529L79.0786 144.92Z" fill="white"/>
<path d="M107.103 136.953H107.032C106.963 136.944 106.897 136.922 106.838 136.887C106.778 136.853 106.726 136.807 106.685 136.752C106.643 136.697 106.613 136.635 106.596 136.568C106.579 136.501 106.575 136.432 106.585 136.364L109.072 117.617C109.092 117.48 109.164 117.355 109.274 117.27C109.384 117.185 109.522 117.146 109.66 117.16C109.799 117.178 109.925 117.25 110.01 117.36C110.096 117.471 110.134 117.61 110.117 117.749L107.62 136.506C107.603 136.631 107.541 136.745 107.446 136.827C107.35 136.909 107.228 136.954 107.103 136.953Z" fill="#231F20"/>
<path d="M38.712 136.953C38.5852 136.951 38.4632 136.904 38.3681 136.821C38.2731 136.737 38.2114 136.621 38.1943 136.496L35.7076 117.739C35.6902 117.602 35.7272 117.463 35.8107 117.353C35.8942 117.243 36.0175 117.17 36.1542 117.15C36.2923 117.135 36.4307 117.175 36.5404 117.26C36.6501 117.345 36.7227 117.469 36.7429 117.607L39.2601 136.354C39.2773 136.492 39.2389 136.632 39.1533 136.742C39.0677 136.853 38.9419 136.925 38.8033 136.942L38.712 136.953Z" fill="#231F20"/>
</svg>
